<svg xmlns="http://www.w3.org/2000/svg" viewBox="0 0 200 110"><defs><style>.cls-1{fill:#fff;}.cls-2{fill:none;}.cls-3{fill:#221f1f;}.cls-4{fill:#63cfe3;}.cls-5{fill:#ddc9a3;}.cls-6{fill:#638c1c;}</style></defs><title>jaeger_landing</title><g id="Layer_2" data-name="Layer 2"><g id="quick_view1_copy" data-name="quick_view1 copy"><rect class="cls-1" width="200" height="110"/><path class="cls-2" d="M49.54,50.77a3.72,3.72,0,1,0,3.72,3.72A3.73,3.73,0,0,0,49.54,50.77ZM49,56.91a1.18,1.18,0,1,1,1.17-1.18A1.17,1.17,0,0,1,49,56.91Z"/><path class="cls-2" d="M48.88,59.59a6.63,6.63,0,0,0-2.35-.38h-.42a2,2,0,0,0-1.94-.6,2,2,0,0,1,1.94.6.68.68,0,0,1,.07.2.49.49,0,0,1,0,.12c0,.55-.71,1.1-1.66,1.3h-.14c-1,.17-1.94-.13-2.13-.68l-.34.12c-.22.07-2.1.74-2.28,2.06A1.43,1.43,0,0,0,40,63.51a2,2,0,0,0,1.48.62,1.85,1.85,0,0,0,.86-.2l.48-.29A5.44,5.44,0,0,1,45,62.7h2a4.74,4.74,0,0,0,1.86-.24,1.68,1.68,0,0,0,1.07-1.87C49.85,60.2,49.48,59.84,48.88,59.59ZM48.62,62a4.57,4.57,0,0,1-1.63.2c-.58,0-1.17,0-1.61,0a3,3,0,0,0-.46,0,7.71,7.71,0,0,0-2.87,1.29,1.21,1.21,0,0,1-.58.13c-.64,0-1.36-.38-1.26-1.14.13-1,1.89-1.6,1.89-1.6a1.79,1.79,0,0,0,1.58.6,6.2,6.2,0,0,0,.9-.07c1.83-.27,2-1.57,2-1.57,2,0,2.77.58,2.83.92A1.09,1.09,0,0,1,48.62,62Z"/><path class="cls-2" d="M44.36,63.31A7.41,7.41,0,0,0,43.1,64h0c.08.4.37,1.3,1.15,1.06.4-.12.41-.61.33-1.07A5.12,5.12,0,0,0,44.36,63.31Z"/><path class="cls-2" d="M46.41,63.11H45.16l-.29,0a8.37,8.37,0,0,0,.19.83c.1.36.25.68.44.76a.72.72,0,0,0,1-.76v-.1C46.45,63.52,46.43,63.28,46.41,63.11Z"/><path class="cls-2" d="M40.65,59.8A3.72,3.72,0,1,0,38,60.9a3.63,3.63,0,0,0,1.88-.52A3.56,3.56,0,0,0,40.65,59.8Zm-3-.14a1.18,1.18,0,1,1,1.17-1.18A1.18,1.18,0,0,1,37.68,59.66Z"/><path class="cls-3" d="M37.85,73.36a36.25,36.25,0,0,1-4.13,1.47c-1.62.31-3,.47-3.51.66s-.88.54.09.91,5.64.49,6.06,0-.29-.71-1.31-.7c-.73,0-.64-.24-.64-.27s.05-.32,1.17-.47,6.06-.62,6-1.15S38.49,73.21,37.85,73.36Z"/><path class="cls-3" d="M34.58,77c-.52.11-.92.33-.88.48s.48.18,1,.07.92-.33.89-.48S35.11,76.86,34.58,77Z"/><path class="cls-3" d="M32.38,76.85c-.56.05-1,.2-1,.36s.47.23,1,.19,1-.21,1-.36S32.94,76.81,32.38,76.85Z"/><path class="cls-3" d="M30.58,76.69c-.37,0-.66.19-.65.3s.33.17.71.12.66-.18.65-.3S31,76.64,30.58,76.69Z"/><path class="cls-3" d="M29.26,76.53c-.36,0-.64.17-.63.26s.32.13.68.08.64-.17.63-.27S29.62,76.47,29.26,76.53Z"/><path class="cls-3" d="M29,76.49c.36,0,.64-.17.63-.26s-.32-.13-.68-.08-.64.17-.63.27S28.65,76.55,29,76.49Z"/><path class="cls-3" d="M28.93,76.05c.31,0,.56-.15.54-.23s-.27-.11-.59-.07-.55.15-.54.23S28.61,76.1,28.93,76.05Z"/><path class="cls-3" d="M47.57,73.87c-1.11,0-3.62-.08-4,.51s1,.8,3.17.62,5.19-.42,5.31-1.08-.56-.53-.63-1,.76-.41.93-1-1.13-.55-2.28-.55-3.06.11-3.24.71.87.6,1.62.75.53.42.53.42C49,73.65,48.68,73.81,47.57,73.87Z"/><path class="cls-3" d="M44.6,75.15c-.53,0-1,.14-1,.31s.43.32,1,.32,1-.14,1-.32S45.13,75.15,44.6,75.15Z"/><path class="cls-3" d="M47.08,75.11c-.36,0-.64.13-.64.29s.28.28.64.28.64-.13.64-.28S47.43,75.11,47.08,75.11Z"/><ellipse class="cls-3" cx="49.08" cy="75.19" rx="0.7" ry="0.23"/><path class="cls-3" d="M50.62,74.69c-.28,0-.51.11-.51.24s.23.25.51.25.51-.11.51-.25S50.9,74.69,50.62,74.69Z"/><path class="cls-3" d="M52,74.41c-.28,0-.52.11-.52.24s.24.24.52.24.52-.11.52-.24S52.24,74.41,52,74.41Z"/><path class="cls-3" d="M29.32,67.94c0,.31.68.6,1.88.87a5.81,5.81,0,0,1,.05-1.74C30,67.33,29.32,67.63,29.32,67.94Z"/><path class="cls-3" d="M64.8,67.14l-.06.15a2.71,2.71,0,0,1-.63.9,3.55,3.55,0,0,1-1.45.94c2.35-.33,3.75-.74,3.75-1.19C66.41,67.65,65.83,67.38,64.8,67.14Z"/><path class="cls-4" d="M60.78,66.48a3.28,3.28,0,0,0-1-2A1.58,1.58,0,0,1,59.12,63c.11-.65.62-1,1.46-1.15-.51-3.45-1.26-7.81-2.22-11.53a7.46,7.46,0,0,0-2.26-4c-1.17.6-2.57,1.25-4.14,1.93-1.13.49-2.3,1-3.41,1.41a10.92,10.92,0,0,1-2.47,2.18,2.8,2.8,0,0,1-1.13.26,1.73,1.73,0,0,1-1.43-.67,4,4,0,0,1-.64.13l-.75.07a1,1,0,0,1-.17,1,1.54,1.54,0,0,1-1.28.47,10.82,10.82,0,0,1-3.73-1l-.67-.26H35.9c-1.56,0-2.79,0-3.75-.13-1,2.18-.59,4.6-.21,6.59a56.21,56.21,0,0,0,2.84,8.24c.44,1.08.87,2.1,1.23,3,3.21.29,7.34.46,11.83.46a126.24,126.24,0,0,0,13.55-.63c-.24-1-.56-2.43-.61-2.79Zm-26.49-9.3a3.72,3.72,0,1,1,6.36,2.62,3.56,3.56,0,0,1-.76.58A3.63,3.63,0,0,1,38,60.9,3.73,3.73,0,0,1,34.29,57.18Zm9.94,7.87c-.78.24-1.07-.66-1.15-1.06h0a7.41,7.41,0,0,1,1.26-.67,5.12,5.12,0,0,1,.2.67C44.64,64.44,44.63,64.93,44.23,65.05Zm1.27-.31c-.19-.08-.34-.4-.44-.76a8.37,8.37,0,0,1-.19-.83l.29,0h1.25c0,.17,0,.41.07.77V64A.72.72,0,0,1,45.5,64.74Zm3.35-2.27a4.74,4.74,0,0,1-1.86.24H45a5.44,5.44,0,0,0-2.18.94l-.48.29a1.85,1.85,0,0,1-.86.2A2,2,0,0,1,40,63.51a1.43,1.43,0,0,1-.35-1.16c.18-1.32,2.06-2,2.28-2.06l.34-.12,0-.1c-.1-.62.7-1.26,1.79-1.44l.15,0a2,2,0,0,1,1.94.6h.42a6.63,6.63,0,0,1,2.35.38c.6.25,1,.61,1,1A1.68,1.68,0,0,1,48.85,62.47Zm.69-4.26a3.72,3.72,0,1,1,3.72-3.72A3.72,3.72,0,0,1,49.54,58.21Z"/><path d="M54.31,42l0-.05,0,0a.49.49,0,0,0-.18-.14H54l-.08,0a.76.76,0,0,0-.16,0l-.17,0-.17,0a1.21,1.21,0,0,0-.58.28,1.84,1.84,0,0,0-.37.43,3,3,0,0,0-.36.86,3.33,3.33,0,0,0-.11.63A1.36,1.36,0,0,0,52,44v.07l.11-.21c.08-.14.18-.33.31-.54a4.69,4.69,0,0,1,.47-.69,1.7,1.7,0,0,1,.3-.3.79.79,0,0,1,.34-.15h.25l.08,0h0a0,0,0,0,1,0,0,.39.39,0,0,1,0,.14,2,2,0,0,1,0,.41c0,.13-.05.27-.08.39s-.11.45-.15.6l0,.24.16-.19a4.85,4.85,0,0,0,.35-.53,3,3,0,0,0,.19-.4,1.82,1.82,0,0,0,.12-.51.85.85,0,0,0,0-.34A.36.36,0,0,0,54.31,42Z"/><polygon points="53.84 42.23 53.84 42.22 53.84 42.23 53.84 42.23 53.84 42.23 53.84 42.23"/><path class="cls-3" d="M31.23,49.07h.05l-.05-.1Z"/><path class="cls-3" d="M31.68,47.62a2.42,2.42,0,0,0,.32.5l.1.13,0,0s0-.08,0-.22-.07-.32-.1-.55,0-.23-.05-.35a1.78,1.78,0,0,1,0-.34.3.3,0,0,1,.05-.1s0,0,0,0h0a.28.28,0,0,1,.11.07,1.18,1.18,0,0,1,.28.27l.26.33.46.64c.13.19.25.35.34.46l.13.17v0s0-.1,0-.17a4.41,4.41,0,0,0-.15-.56,3.89,3.89,0,0,0-.32-.76,2.92,2.92,0,0,0-.25-.4,1.74,1.74,0,0,0-.38-.39.8.8,0,0,0-.29-.15l-.1,0h-.31a.61.61,0,0,0-.29.26.54.54,0,0,0-.1.31,1.54,1.54,0,0,0,.05.5C31.58,47.39,31.63,47.51,31.68,47.62Z"/><path class="cls-5" d="M33.4,70.49a2.3,2.3,0,0,0,1.92-1.1c-.49-1.14-1.31-3.07-2.08-5.1a4.24,4.24,0,0,0-.71.85c-.64,1-1.18,3.35-.51,4.58A1.45,1.45,0,0,0,33.4,70.49Z"/><path class="cls-5" d="M64.2,64.69a3.27,3.27,0,0,0-2.64-2.28h0a3.51,3.51,0,0,0-.47,0c-.57,0-1.27.12-1.37.7-.07.4.11.61.48,1a3.78,3.78,0,0,1,1.18,2.34c.2,1.46.56,2.2,1.06,2.2h0c.24,0,.67-.14,1.38-.81A2.85,2.85,0,0,0,64.2,64.69Z"/><path class="cls-3" d="M37.68,57.31a1.18,1.18,0,1,0,1.17,1.17A1.18,1.18,0,0,0,37.68,57.31Z"/><path class="cls-3" d="M49,54.56a1.18,1.18,0,1,0,1.17,1.17A1.17,1.17,0,0,0,49,54.56Z"/><path class="cls-6" d="M34.49,45.37a11.75,11.75,0,0,0,3.08.38,28.2,28.2,0,0,0,11-2.71l.12,0a3.47,3.47,0,0,1,.08-.89,2.65,2.65,0,0,1,.65-1.31c-.06-.21-.11-.37-.14-.44-.62-.33-5.76-2.25-8.44-2.25a3.4,3.4,0,0,0-.69.06c-2.38.49-6,4.61-6.12,5.2,0,.25,0,1,0,1.9Z"/><path class="cls-6" d="M34.45,51.24l-.24,0a1,1,0,0,1-1-.82.76.76,0,0,1,0-.15c-.27.15-.54.32-.79.49l-.45.31-.33-.43a11,11,0,0,1-1-1.57A3.18,3.18,0,0,0,29,50.21a.13.13,0,0,0,0,.15C29.18,50.55,30,51.13,34.45,51.24Z"/><path class="cls-6" d="M43.78,50a1,1,0,0,1,1.22.12,1.34,1.34,0,0,0,.26-.08,25.33,25.33,0,0,0,3.62-3.75.81.81,0,0,1,.16-.16,30.63,30.63,0,0,1-11.49,2.79,13.63,13.63,0,0,1-1.86-.12l.09.27-.52.2-.24.09a20.69,20.69,0,0,1,2.68.91,8.33,8.33,0,0,0,3,.85,1,1,0,0,1,.9,0l1.19-.1a2.88,2.88,0,0,0,.5-.1A1,1,0,0,1,43.78,50Z"/><path class="cls-6" d="M55.71,43.87A7.58,7.58,0,0,1,55.09,46l-.18.25c.81-.4,1.53-.77,2.14-1.11,2.13-1.2,2.39-1.72,2.42-1.85s0-.11,0-.13-.17-.17-.84-.17a15.1,15.1,0,0,0-2.84.4C55.76,43.55,55.74,43.71,55.71,43.87Z"/><path class="cls-6" d="M54.88,46.27l-.3,0s-.57,0-1.34,0a12.75,12.75,0,0,0-2.7.25,1,1,0,0,1-.13,1.07c-.21.25-.57.68-1,1.16l2.32-1C52.88,47.21,53.94,46.73,54.88,46.27Z"/><path class="cls-5" d="M48.85,43.56c-2.16.94-6.89,2.76-11.28,2.76a12.33,12.33,0,0,1-3.23-.4c.11.17.22.34.32.52a13.33,13.33,0,0,1,.81,1.72,13.83,13.83,0,0,0,2.08.15c2.53,0,6.47-.58,11.88-3,.09-.26.2-.6.34-1h-.2A1,1,0,0,1,48.85,43.56Z"/><path class="cls-4" d="M31.28,49.07A11.8,11.8,0,0,0,32,50.25a17.11,17.11,0,0,1,3-1.56s0-.13-.13-.34a.61.61,0,0,0,0-.12l0-.06,0-.1,0-.1,0-.08s0-.07,0-.11l-.05-.1a1.17,1.17,0,0,1,0-.11l-.06-.13,0-.06a1.3,1.3,0,0,1-.08-.17l0,0-.1-.2v0a8,8,0,0,0-.44-.74,2.68,2.68,0,0,0-1.94-1.45,1.38,1.38,0,0,0-.72.21c-1.37.83-.66,2.72,0,4Zm.2-2.32a.54.54,0,0,1,.1-.31.61.61,0,0,1,.29-.26h.31l.1,0a.8.8,0,0,1,.29.15,1.74,1.74,0,0,1,.38.39,2.92,2.92,0,0,1,.25.4,3.89,3.89,0,0,1,.32.76,4.41,4.41,0,0,1,.15.56c0,.07,0,.13,0,.17v0l-.13-.17c-.09-.11-.21-.27-.34-.46l-.46-.64L32.51,47a1.18,1.18,0,0,0-.28-.27.28.28,0,0,0-.11-.07h0s0,0,0,0a.3.3,0,0,0-.05.1,1.78,1.78,0,0,0,0,.34c0,.12,0,.24.05.35s.07.42.1.55,0,.22,0,.22l0,0-.1-.13a2.42,2.42,0,0,1-.32-.5c-.05-.11-.1-.23-.15-.37A1.54,1.54,0,0,1,31.48,46.75Z"/><polygon class="cls-4" points="31.91 44.47 31.91 44.47 31.91 44.76 31.91 44.47"/><path class="cls-5" d="M50.25,40.39l.17,0a1.16,1.16,0,0,1,.8,1.05,3.31,3.31,0,0,1,2.6-1.68,1.89,1.89,0,0,1,1,.27c.49-.6.8-1,.8-1-.36.07-1.14.17-1.14.17a4,4,0,0,0,2.69-4c0,.5-1.51,1.71-1.51,1.71a2.26,2.26,0,0,0-.17-1c.07.57-1.74,2-1.74,2a1.44,1.44,0,0,0,0-.74c-.1.53-.9.74-.9.74.5-.61,1.44-3.79.73-4S52,36.05,52,36.05c0-.53-.34-.53-.34-.53a4.31,4.31,0,0,1-1.21,3c-.1-.34-.63-.51-.63-.51a9.71,9.71,0,0,1-.09,2.56A1,1,0,0,1,50.25,40.39Z"/><path d="M49.54,43.65h0l0,.05h0l0,0,.06,0h.09a.51.51,0,0,0,.28-.16l.29-.63c.09-.19.19-.37.28-.55.15-.76-.05-1.38-.33-1.44h0c-.29,0-.71.51-.88,1.26a2.09,2.09,0,0,0,.08,1.31h0A.62.62,0,0,0,49.54,43.65Z"/><polygon class="cls-4" points="53.84 42.22 53.84 42.22 53.84 42.22 53.84 42.23 53.84 42.22"/><polygon class="cls-4" points="53.85 42.23 53.84 42.23 53.84 42.23 53.84 42.23 53.84 42.23 53.85 42.23 53.85 42.23"/><path class="cls-4" d="M53.82,40.35c-1.66,0-2.88,2.5-3.52,4.19q-.09.23-.15.42l0,.06c0,.15-.09.29-.13.42s-.11.35-.15.47a.75.75,0,0,1,.24.08,11.85,11.85,0,0,1,3.16-.36c.8,0,1.38,0,1.38,0C54.87,45.32,56.33,40.35,53.82,40.35Zm.57,2a1.82,1.82,0,0,1-.12.51,3,3,0,0,1-.19.4,4.85,4.85,0,0,1-.35.53l-.16.19,0-.24c0-.15.1-.36.15-.6s.06-.26.08-.39a2,2,0,0,0,0-.41.39.39,0,0,0,0-.14,0,0,0,0,0,0,0h0l-.08,0h-.25a.79.79,0,0,0-.34.15,1.7,1.7,0,0,0-.3.3,4.69,4.69,0,0,0-.47.69c-.13.21-.23.4-.31.54l-.11.21V44a1.36,1.36,0,0,1,0-.18,3.33,3.33,0,0,1,.11-.63,3,3,0,0,1,.36-.86,1.84,1.84,0,0,1,.37-.43,1.21,1.21,0,0,1,.58-.28l.17,0,.17,0a.76.76,0,0,1,.16,0l.08,0h.09a.49.49,0,0,1,.18.14l0,0,0,.05a.36.36,0,0,1,0,.09A.85.85,0,0,1,54.39,42.39Z"/><path d="M45,51.48a2.17,2.17,0,0,0,.88-.21A20.46,20.46,0,0,0,50,47.14a.45.45,0,0,0,.09-.29.4.4,0,0,0-.14-.27.37.37,0,0,0-.26-.09.41.41,0,0,0-.3.14c-.8,1-3.05,3.54-3.82,3.91h0a2,2,0,0,1-.42.13l-.29,0-.22-.2a.39.39,0,0,0-.27-.11.42.42,0,0,0-.21.06A.41.41,0,0,0,44,51,1.14,1.14,0,0,0,45,51.48Z"/><path d="M41.2,51.57a.41.41,0,0,0-.19,0l-.12.07h-.22a9.62,9.62,0,0,1-3.2-.9,10.38,10.38,0,0,0-3.28-1h-.11a.39.39,0,0,0-.25.17.37.37,0,0,0-.06.29.39.39,0,0,0,.38.33h.11a12.07,12.07,0,0,1,2.92.92,10.55,10.55,0,0,0,3.5.95,1,1,0,0,0,.82-.26.37.37,0,0,0,.09-.28.4.4,0,0,0-.14-.27A.37.37,0,0,0,41.2,51.57Z"/><path class="cls-5" d="M46.53,59.78s-.12,1.3-2,1.57a6.2,6.2,0,0,1-.9.07,1.79,1.79,0,0,1-1.58-.6s-1.76.6-1.89,1.6c-.1.76.62,1.14,1.26,1.14a1.21,1.21,0,0,0,.58-.13,7.71,7.71,0,0,1,2.87-1.29,3,3,0,0,1,.46,0c.44,0,1,0,1.61,0a4.57,4.57,0,0,0,1.63-.2,1.09,1.09,0,0,0,.74-1.25C49.3,60.36,48.5,59.8,46.53,59.78Z"/><path class="cls-3" d="M44.39,60.85h.14c.95-.2,1.65-.75,1.66-1.3a.49.49,0,0,0,0-.12.68.68,0,0,0-.07-.2,2,2,0,0,0-1.94-.6l-.15,0c-1.09.18-1.89.82-1.79,1.44l0,.1C42.45,60.72,43.36,61,44.39,60.85Z"/><path class="cls-3" d="M80.09,64.06a5.07,5.07,0,0,1-.54,2.31,4.43,4.43,0,0,1-4.29,2.41,4.11,4.11,0,0,1-3.12-1.14A4.75,4.75,0,0,1,71,64.55l-.86,0a5.55,5.55,0,0,0,1.36,3.73,5,5,0,0,0,3.75,1.4,5.27,5.27,0,0,0,5.06-2.87A6,6,0,0,0,81,64.06V47.37h-.86Z"/><path class="cls-3" d="M91.74,47.4h0a.53.53,0,0,0-.49.36L84.08,69.39H85l2.09-6.15h9.35l2.11,6.15h.91L92.23,47.76A.53.53,0,0,0,91.74,47.4Zm-4.38,15L91.74,49l4.41,13.36Z"/><polygon class="cls-3" points="103.56 69.34 114.02 69.34 114.02 68.48 104.42 68.48 104.42 58.7 113.45 58.7 113.45 57.84 104.42 57.84 104.42 48.07 114.02 48.07 114.02 47.2 103.56 47.2 103.56 69.34"/><path class="cls-3" d="M131.92,53.21a6.27,6.27,0,0,0-1.6-4.25,7.45,7.45,0,0,0-9.62,0,6.24,6.24,0,0,0-1.58,4.18V63.82a6.19,6.19,0,0,0,1,3.48,6.06,6.06,0,0,0,5.36,2.61,10.87,10.87,0,0,0,2.66-.3,5,5,0,0,0,3.75-4.86V59.39h-5.53v.86h4.67v4.5a4.1,4.1,0,0,1-3.1,4,10.15,10.15,0,0,1-2.45.27,5.22,5.22,0,0,1-4.64-2.22,5.29,5.29,0,0,1-.88-3V53.12a5.28,5.28,0,0,1,1.33-3.56,5.59,5.59,0,0,1,4.2-1.49,4.95,4.95,0,0,1,5.54,5.11Z"/><polygon class="cls-3" points="137.68 69.34 148.26 69.34 148.26 68.48 138.55 68.48 138.55 58.7 147.44 58.7 147.44 57.84 138.55 57.84 138.55 48.07 148.26 48.07 148.26 47.2 137.68 47.2 137.68 69.34"/><path class="cls-3" d="M166.08,69.38l-4.68-9.54a5,5,0,0,0,3.82-5.35c0-4.31-2.2-6.29-3.51-6.88a4.73,4.73,0,0,0-2-.41h-6.31V69.34h.87V60.26l1.12,0a26.09,26.09,0,0,0,5.1-.23l4.58,9.33Zm-10.62-10-1.14,0V48.07h5.44a3.8,3.8,0,0,1,1.59.33c1.37.62,3,2.45,3,6.09a4.56,4.56,0,0,1-1.19,3.43C161.51,59.54,158.3,59.47,155.46,59.41Z"/></g></g></svg>