<svg xmlns="http://www.w3.org/2000/svg" viewBox="0 0 200 110"><defs><style>.cls-1{fill:#fff;}.cls-2{fill:none;}.cls-3{fill:#326ce5;}</style></defs><title>kubernetes_landing</title><g id="Layer_2" data-name="Layer 2"><g id="quick_view1_copy" data-name="quick_view1 copy"><rect class="cls-1" width="200" height="110"/><g id="layer1"><g id="text4373"><path id="path2985" d="M70.06,59.6c.29-.32.59-.65.89-1s.63-.68.92-1l.82-1,.68-.8H76.9c-.71.81-1.4,1.59-2.08,2.33s-1.39,1.49-2.19,2.27a13.13,13.13,0,0,1,1.24,1.3q.63.74,1.23,1.53c.4.54.77,1.07,1.1,1.6s.61,1,.83,1.45h-3.4c-.22-.34-.46-.72-.74-1.13s-.55-.85-.86-1.26a12.63,12.63,0,0,0-1-1.21,7,7,0,0,0-1-1v4.58h-3v-15l3-.47V59.6"/><path id="path2987" d="M87.37,65.94a17.29,17.29,0,0,1-2,.39,14.43,14.43,0,0,1-2.51.2,6,6,0,0,1-2.23-.36,3.45,3.45,0,0,1-1.4-1,4,4,0,0,1-.73-1.56,8.08,8.08,0,0,1-.22-2V55.81h3v5.48a4.13,4.13,0,0,0,.38,2.07,1.49,1.49,0,0,0,1.41.64l.68,0c.24,0,.45,0,.64-.08V55.81h3V65.94"/><path id="path2989" d="M96.89,61c0-1.91-.7-2.87-2.11-2.87a3.63,3.63,0,0,0-.92.12,2.48,2.48,0,0,0-.71.3v5.4l.55.08.74,0a2.12,2.12,0,0,0,1.83-.84A3.56,3.56,0,0,0,96.89,61m3,.08a6.25,6.25,0,0,1-.38,2.27,4.52,4.52,0,0,1-2.77,2.85,6.4,6.4,0,0,1-2.31.38q-.54,0-1.14-.06a11.21,11.21,0,0,1-1.15-.12q-.56-.08-1.08-.18L90.18,66V51.3l3-.47v5.22a5.18,5.18,0,0,1,1-.34,5.36,5.36,0,0,1,1.16-.12,4.56,4.56,0,0,1,2,.4,3.88,3.88,0,0,1,1.44,1.09,5.08,5.08,0,0,1,.87,1.74,7.71,7.71,0,0,1,.3,2.23"/><path id="path2991" d="M101.71,61.13a6.44,6.44,0,0,1,.42-2.43,5.39,5.39,0,0,1,1.13-1.76,4.83,4.83,0,0,1,1.6-1,5.05,5.05,0,0,1,1.87-.36,4.62,4.62,0,0,1,3.53,1.38,5.58,5.58,0,0,1,1.29,4c0,.17,0,.37,0,.58s0,.38,0,.54h-6.73a2,2,0,0,0,.85,1.45,3.47,3.47,0,0,0,2,.54,9.31,9.31,0,0,0,1.59-.14,5.84,5.84,0,0,0,1.3-.38l.4,2.42a6.25,6.25,0,0,1-.64.23,6.69,6.69,0,0,1-.9.2,9.51,9.51,0,0,1-1,.16,10.32,10.32,0,0,1-1.11.06,6.65,6.65,0,0,1-2.47-.42A4.9,4.9,0,0,1,103,65a4.72,4.72,0,0,1-1-1.74,6.78,6.78,0,0,1-.32-2.15m7-1.14a2.62,2.62,0,0,0-.14-.73,1.7,1.7,0,0,0-.33-.64,1.67,1.67,0,0,0-.58-.46,1.83,1.83,0,0,0-.86-.18,1.91,1.91,0,0,0-.86.18,1.55,1.55,0,0,0-.59.44,2,2,0,0,0-.38.66,4.58,4.58,0,0,0-.18.73h3.92"/><path id="path2993" d="M120.17,58.44c-.27-.07-.58-.13-.94-.2a5.36,5.36,0,0,0-1.16-.12,4.82,4.82,0,0,0-.68.06,3.57,3.57,0,0,0-.57.1v8h-3V56.37a15.68,15.68,0,0,1,1.87-.52,10.72,10.72,0,0,1,2.43-.26,4.45,4.45,0,0,1,.58,0,5.25,5.25,0,0,1,.68.08l.68.12a2.59,2.59,0,0,1,.57.16l-.49,2.45"/><path id="path2995" d="M122.26,56.17a14.57,14.57,0,0,1,1.95-.4,15.56,15.56,0,0,1,2.51-.2,5.84,5.84,0,0,1,2.21.36,3.21,3.21,0,0,1,1.42,1,4,4,0,0,1,.74,1.51,8.37,8.37,0,0,1,.22,1.95v5.92h-3V60.73a4,4,0,0,0-.38-2,1.56,1.56,0,0,0-1.42-.6,5.49,5.49,0,0,0-.68,0,5.2,5.2,0,0,0-.63.06v8.09h-3V56.17"/><path id="path2997" d="M133.52,61.13a6.44,6.44,0,0,1,.41-2.43,5.58,5.58,0,0,1,1.14-1.76,4.89,4.89,0,0,1,1.59-1,5.14,5.14,0,0,1,1.88-.36,4.62,4.62,0,0,1,3.53,1.38,5.58,5.58,0,0,1,1.29,4c0,.17,0,.37,0,.58s0,.38,0,.54h-6.73a2,2,0,0,0,.85,1.45,3.47,3.47,0,0,0,2,.54,9.31,9.31,0,0,0,1.59-.14,6,6,0,0,0,1.3-.38l.39,2.42a5.22,5.22,0,0,1-.63.23,6.69,6.69,0,0,1-.9.2,9.51,9.51,0,0,1-1,.16,10.32,10.32,0,0,1-1.11.06,6.62,6.62,0,0,1-2.47-.42A4.81,4.81,0,0,1,134.85,65a4.88,4.88,0,0,1-1-1.74,7.07,7.07,0,0,1-.31-2.15m7-1.14a2.62,2.62,0,0,0-.14-.73,1.59,1.59,0,0,0-.34-.64,1.63,1.63,0,0,0-.57-.46,1.86,1.86,0,0,0-.86-.18,1.91,1.91,0,0,0-.86.18,1.67,1.67,0,0,0-.6.44,2.24,2.24,0,0,0-.38.66,4.55,4.55,0,0,0-.17.73h3.92"/><path id="path2999" d="M145.56,53.2l3-.48v3.09h3.56v2.47h-3.56V62a3,3,0,0,0,.31,1.49,1.44,1.44,0,0,0,1.34.56,6.69,6.69,0,0,0,1-.08,4.84,4.84,0,0,0,.93-.26l.42,2.31a7.55,7.55,0,0,1-1.19.38,6.81,6.81,0,0,1-1.62.16,5.29,5.29,0,0,1-2-.32,3.3,3.3,0,0,1-1.28-.91,3.7,3.7,0,0,1-.68-1.44,8.83,8.83,0,0,1-.17-1.85V53.2"/><path id="path3001" d="M153.6,61.13A6.44,6.44,0,0,1,154,58.7a5.41,5.41,0,0,1,1.14-1.76,4.79,4.79,0,0,1,1.59-1,5.14,5.14,0,0,1,1.88-.36,4.62,4.62,0,0,1,3.53,1.38,5.58,5.58,0,0,1,1.29,4c0,.17,0,.37,0,.58s0,.38,0,.54h-6.74a2,2,0,0,0,.86,1.45,3.45,3.45,0,0,0,2,.54,9.31,9.31,0,0,0,1.59-.14,6,6,0,0,0,1.3-.38l.39,2.42a6,6,0,0,1-.63.23,6.69,6.69,0,0,1-.9.2,9.9,9.9,0,0,1-1,.16,10.32,10.32,0,0,1-1.11.06,6.71,6.71,0,0,1-2.48-.42,4.46,4.46,0,0,1-2.75-2.87,7.07,7.07,0,0,1-.32-2.15m7-1.14a2.62,2.62,0,0,0-.14-.73,1.59,1.59,0,0,0-.34-.64,1.63,1.63,0,0,0-.57-.46,1.86,1.86,0,0,0-.86-.18,1.91,1.91,0,0,0-.86.18,1.67,1.67,0,0,0-.6.44,2.24,2.24,0,0,0-.38.66,4.58,4.58,0,0,0-.18.73h3.93"/><path id="path3003" d="M168.75,64.16a2.91,2.91,0,0,0,1.16-.16.6.6,0,0,0,.34-.62.73.73,0,0,0-.44-.61,7.08,7.08,0,0,0-1.33-.62c-.47-.18-.9-.35-1.28-.54a4.28,4.28,0,0,1-1-.66,2.9,2.9,0,0,1-.62-.94,3.52,3.52,0,0,1-.21-1.29,2.8,2.8,0,0,1,1.09-2.33,4.79,4.79,0,0,1,3-.86,9.19,9.19,0,0,1,1.84.18,8.53,8.53,0,0,1,1.39.36l-.52,2.31a9.59,9.59,0,0,0-1.13-.32,6.18,6.18,0,0,0-1.36-.14c-.93,0-1.39.26-1.39.78a.79.79,0,0,0,.06.32.92.92,0,0,0,.23.28c.12.08.28.17.48.28l.8.32a10.64,10.64,0,0,1,1.62.71,3.49,3.49,0,0,1,1,.76,2.17,2.17,0,0,1,.52.9,3.63,3.63,0,0,1,.16,1.15A2.67,2.67,0,0,1,172,65.78a5.75,5.75,0,0,1-3.29.79,9.59,9.59,0,0,1-2.33-.24,11,11,0,0,1-1.27-.39l.49-2.42a10.8,10.8,0,0,0,1.56.48,7.75,7.75,0,0,0,1.57.16"/></g></g><polygon class="cls-1" points="39.7 44.27 51.97 50.13 55 63.29 46.51 73.84 32.9 73.84 24.41 63.29 27.44 50.13 39.7 44.27"/><polygon class="cls-2" points="39.7 44.27 51.97 50.13 55 63.29 46.51 73.84 32.9 73.84 24.41 63.29 27.44 50.13 39.7 44.27"/><path class="cls-3" d="M39.59,42.85a2.26,2.26,0,0,0-.85.21L27.12,48.61a2.26,2.26,0,0,0-1.2,1.5L23.05,62.58a2.2,2.2,0,0,0,.31,1.69l.12.17,8,10a2.29,2.29,0,0,0,1.74.83H46.15a2.26,2.26,0,0,0,1.74-.82l8-10a2.24,2.24,0,0,0,.43-1.87L53.49,50.11a2.27,2.27,0,0,0-1.2-1.5L40.67,43.06A2.25,2.25,0,0,0,39.59,42.85Z"/><path class="cls-1" d="M39.68,63A.49.49,0,0,1,40,63a.57.57,0,0,1,.27.26h0L42,66.47c-.23.07-.47.14-.71.19a7.12,7.12,0,0,1-3.92-.2l1.76-3.19h0A.6.6,0,0,1,39.68,63Zm-3-1.48a.63.63,0,0,1,.59.48.62.62,0,0,1,0,.38h0l-1.4,3.36a7.21,7.21,0,0,1-2.89-3.61l3.59-.61h.13Zm6.08,0h.15l3.62.61a7.19,7.19,0,0,1-2.9,3.65l-1.4-3.4h0a.61.61,0,0,1,.3-.79A.46.46,0,0,1,42.73,61.46Zm-3.58-3h1.11l.7.87-.25,1.09-1,.48-1-.48-.25-1.09Zm6.68-2.62a7.27,7.27,0,0,1,.9,2.18,7.4,7.4,0,0,1,.15,2.33l-3.52-1h0a.62.62,0,0,1-.44-.73.63.63,0,0,1,.2-.33h0Zm-12.27,0,2.73,2.45h0a.61.61,0,0,1,.07.84.54.54,0,0,1-.31.21v0l-3.5,1A7.17,7.17,0,0,1,33.56,55.85Zm7-3.37a7.29,7.29,0,0,1,4.16,2l-3,2.11h0a.62.62,0,0,1-.84-.12.58.58,0,0,1-.13-.35h0Zm-1.75,0-.2,3.65h0a.61.61,0,0,1-.61.59.65.65,0,0,1-.36-.12h0l-3-2.12a7.24,7.24,0,0,1,3.45-1.88C38.34,52.56,38.59,52.51,38.83,52.48Zm.87-5.39a.74.74,0,0,0-.69.77v.2a6.19,6.19,0,0,0,.09.66A6.44,6.44,0,0,1,39.18,50a.73.73,0,0,1-.22.36l0,.3a9.13,9.13,0,0,0-1.26.19,8.92,8.92,0,0,0-4.54,2.6l-.25-.18a.6.6,0,0,1-.41,0,5.91,5.91,0,0,1-.94-.85,5.16,5.16,0,0,0-.46-.48l-.15-.13a.84.84,0,0,0-.49-.18.67.67,0,0,0-.55.24.74.74,0,0,0,.17,1h0l.14.11a5.82,5.82,0,0,0,.58.34,6.11,6.11,0,0,1,1,.73.69.69,0,0,1,.14.4l.23.2a8.93,8.93,0,0,0-1.42,6.27l-.29.08a1.11,1.11,0,0,1-.3.31,6.68,6.68,0,0,1-1.25.2c-.23,0-.42,0-.67,0l-.18.05h0A.7.7,0,1,0,28.37,63h0l.18,0a5.87,5.87,0,0,0,.63-.24,7.55,7.55,0,0,1,1.21-.36.73.73,0,0,1,.4.15l.3-.06a9.06,9.06,0,0,0,4,5l-.12.3a.8.8,0,0,1,.06.4,7.36,7.36,0,0,1-.63,1.13,5.28,5.28,0,0,0-.37.55L34,70a.74.74,0,0,0,.29,1,.73.73,0,0,0,1-.39h0a1.4,1.4,0,0,0,.09-.17,5.84,5.84,0,0,0,.2-.64,4.84,4.84,0,0,1,.54-1.25.65.65,0,0,1,.3-.15l.16-.28a9,9,0,0,0,5.22.38,11,11,0,0,0,1.19-.36,2.71,2.71,0,0,1,.15.26.57.57,0,0,1,.36.22,5.68,5.68,0,0,1,.47,1.17,5.17,5.17,0,0,0,.21.63c0,.06.06.13.08.18a.74.74,0,0,0,1,.4.73.73,0,0,0,.3-1c0-.06-.06-.14-.09-.19-.12-.22-.25-.36-.37-.55a5.78,5.78,0,0,1-.62-1.11.55.55,0,0,1,.05-.41s-.08-.2-.11-.28a9,9,0,0,0,4-5l.3,0a.53.53,0,0,1,.39-.14,6.54,6.54,0,0,1,1.21.35,5.9,5.9,0,0,0,.63.25l.18,0h0a.74.74,0,0,0,.9-.51.73.73,0,0,0-.59-.84l-.2,0a5.21,5.21,0,0,0-.67-.06,6.68,6.68,0,0,1-1.25-.2.85.85,0,0,1-.3-.3l-.28-.08a8.94,8.94,0,0,0-.14-3.25,9.06,9.06,0,0,0-1.31-3l.25-.22a.55.55,0,0,1,.13-.4,6.68,6.68,0,0,1,1-.72,5.7,5.7,0,0,0,.57-.34l.16-.12a.75.75,0,0,0,.17-1,.74.74,0,0,0-1-.06l-.15.12a4.19,4.19,0,0,0-.46.49,6.93,6.93,0,0,1-.94.85.79.79,0,0,1-.42,0l-.27.19a9.12,9.12,0,0,0-5.77-2.79c0-.09,0-.26,0-.31a.51.51,0,0,1-.23-.35,6.44,6.44,0,0,1,.08-1.26,6.19,6.19,0,0,0,.09-.66v-.2A.74.74,0,0,0,39.7,47.09Z"/><path class="cls-2" d="M39.68,63A.49.49,0,0,1,40,63a.57.57,0,0,1,.27.26h0L42,66.47c-.23.07-.47.14-.71.19a7.12,7.12,0,0,1-3.92-.2l1.76-3.19h0A.6.6,0,0,1,39.68,63Zm-3-1.48a.63.63,0,0,1,.59.48.62.62,0,0,1,0,.38h0l-1.4,3.36a7.21,7.21,0,0,1-2.89-3.61l3.59-.61h.13Zm6.08,0h.15l3.62.61a7.19,7.19,0,0,1-2.9,3.65l-1.4-3.4h0a.61.61,0,0,1,.3-.79A.46.46,0,0,1,42.73,61.46Zm-3.58-3h1.11l.7.87-.25,1.09-1,.48-1-.48-.25-1.09Zm6.68-2.62a7.27,7.27,0,0,1,.9,2.18,7.4,7.4,0,0,1,.15,2.33l-3.52-1h0a.62.62,0,0,1-.44-.73.63.63,0,0,1,.2-.33h0Zm-12.27,0,2.73,2.45h0a.61.61,0,0,1,.07.84.54.54,0,0,1-.31.21v0l-3.5,1A7.17,7.17,0,0,1,33.56,55.85Zm7-3.37a7.29,7.29,0,0,1,4.16,2l-3,2.11h0a.62.62,0,0,1-.84-.12.58.58,0,0,1-.13-.35h0Zm-1.75,0-.2,3.65h0a.61.61,0,0,1-.61.59.65.65,0,0,1-.36-.12h0l-3-2.12a7.24,7.24,0,0,1,3.45-1.88C38.34,52.56,38.59,52.51,38.83,52.48Zm.87-5.39a.74.74,0,0,0-.69.77v.2a6.19,6.19,0,0,0,.09.66A6.44,6.44,0,0,1,39.18,50a.73.73,0,0,1-.22.36l0,.3a9.13,9.13,0,0,0-1.26.19,8.92,8.92,0,0,0-4.54,2.6l-.25-.18a.6.6,0,0,1-.41,0,5.91,5.91,0,0,1-.94-.85,5.16,5.16,0,0,0-.46-.48l-.15-.13a.84.84,0,0,0-.49-.18.67.67,0,0,0-.55.24.74.74,0,0,0,.17,1h0l.14.11a5.82,5.82,0,0,0,.58.34,6.11,6.11,0,0,1,1,.73.69.69,0,0,1,.14.4l.23.2a8.93,8.93,0,0,0-1.42,6.27l-.29.08a1.11,1.11,0,0,1-.3.31,6.68,6.68,0,0,1-1.25.2c-.23,0-.42,0-.67,0l-.18.05h0A.7.7,0,1,0,28.37,63h0l.18,0a5.87,5.87,0,0,0,.63-.24,7.55,7.55,0,0,1,1.21-.36.73.73,0,0,1,.4.15l.3-.06a9.06,9.06,0,0,0,4,5l-.12.3a.8.8,0,0,1,.06.4,7.36,7.36,0,0,1-.63,1.13,5.28,5.28,0,0,0-.37.55L34,70a.74.74,0,0,0,.29,1,.73.73,0,0,0,1-.39h0a1.4,1.4,0,0,0,.09-.17,5.84,5.84,0,0,0,.2-.64,4.84,4.84,0,0,1,.54-1.25.65.65,0,0,1,.3-.15l.16-.28a9,9,0,0,0,5.22.38,11,11,0,0,0,1.19-.36,2.71,2.71,0,0,1,.15.26.57.57,0,0,1,.36.22,5.68,5.68,0,0,1,.47,1.17,5.17,5.17,0,0,0,.21.63c0,.06.06.13.08.18a.74.74,0,0,0,1,.4.73.73,0,0,0,.3-1c0-.06-.06-.14-.09-.19-.12-.22-.25-.36-.37-.55a5.78,5.78,0,0,1-.62-1.11.55.55,0,0,1,.05-.41s-.08-.2-.11-.28a9,9,0,0,0,4-5l.3,0a.53.53,0,0,1,.39-.14,6.54,6.54,0,0,1,1.21.35,5.9,5.9,0,0,0,.63.25l.18,0h0a.74.74,0,0,0,.9-.51.73.73,0,0,0-.59-.84l-.2,0a5.21,5.21,0,0,0-.67-.06,6.68,6.68,0,0,1-1.25-.2.85.85,0,0,1-.3-.3l-.28-.08a8.94,8.94,0,0,0-.14-3.25,9.06,9.06,0,0,0-1.31-3l.25-.22a.55.55,0,0,1,.13-.4,6.68,6.68,0,0,1,1-.72,5.7,5.7,0,0,0,.57-.34l.16-.12a.75.75,0,0,0,.17-1,.74.74,0,0,0-1-.06l-.15.12a4.19,4.19,0,0,0-.46.49,6.93,6.93,0,0,1-.94.85.79.79,0,0,1-.42,0l-.27.19a9.12,9.12,0,0,0-5.77-2.79c0-.09,0-.26,0-.31a.51.51,0,0,1-.23-.35,6.44,6.44,0,0,1,.08-1.26,6.19,6.19,0,0,0,.09-.66v-.2A.74.74,0,0,0,39.7,47.09Z"/></g></g></svg>